<?xml version="1.0" encoding="utf-8"?>
<!-- Generator: Adobe Illustrator 27.5.0, SVG Export Plug-In . SVG Version: 6.00 Build 0)  -->
<svg version="1.1" xmlns="http://www.w3.org/2000/svg" xmlns:xlink="http://www.w3.org/1999/xlink" x="0px" y="0px"
	 viewBox="0 0 2200 2200" style="enable-background:new 0 0 2200 2200;" xml:space="preserve">
<g id="background">
	<rect style="fill:#FFFFFF;" width="2200" height="2200"/>
</g>
<g id="Objects">
	<g>
		<ellipse style="fill:#D3DADD;" cx="1100" cy="1918.526" rx="450.452" ry="25.066"/>
		<g>
			<rect x="1011.809" y="399.718" style="fill:#C45151;" width="176.381" height="124.569"/>
			<path style="fill:#C45151;" d="M1541.678,693.819l-143.623-102.385l47.886-67.173c13.489-18.922,39.763-23.326,58.685-9.837
				l75.1,53.537c18.922,13.489,23.326,39.763,9.837,58.685L1541.678,693.819z"/>
			<path style="fill:#C45151;" d="M658.322,693.819l143.623-102.385l-47.885-67.173c-13.489-18.922-39.763-23.326-58.685-9.837
				l-75.1,53.537c-18.922,13.489-23.326,39.763-9.837,58.685L658.322,693.819z"/>
			<circle style="fill:#E54A4A;" cx="1100" cy="1161.465" r="670.249"/>
			<circle style="fill:#C45151;" cx="1100" cy="1161.465" r="563.318"/>
			<circle style="fill:#FFFFFF;" cx="1100" cy="1161.465" r="528.042"/>
			<path style="fill:#FF9B64;" d="M1100,659.557c277.196,0,501.908,224.712,501.908,501.908H1100V659.557z"/>
			<path style="fill:#E54A4A;" d="M1188.287,425.073h-176.574c-13.341,0-24.156-10.815-24.156-24.156V280.564
				c0-13.341,10.815-24.156,24.156-24.156h176.574c13.341,0,24.156,10.815,24.156,24.156v120.353
				C1212.443,414.258,1201.628,425.073,1188.287,425.073z"/>
			<path style="fill:#222D33;" d="M1089.446,1241.759c-10.365,0-18.753-7.642-18.704-17.049
				c0.862-165.754,13.632-493.572,29.258-493.572s28.396,327.818,29.258,493.572c0.049,9.407-8.339,17.049-18.704,17.049H1089.446z"
				/>
			<path style="fill:#222D33;" d="M1019.706,1151.598c0-9.69,7.144-17.532,15.939-17.486
				c154.965,0.806,366.206,12.744,366.206,27.353s-211.241,26.547-366.206,27.353c-8.795,0.046-15.939-7.796-15.939-17.486V1151.598
				z"/>
			<path style="fill:#222D33;" d="M1100.181,696.967L1100.181,696.967c-3.525,0-6.383-2.858-6.383-6.383v-30.718
				c0-3.525,2.858-6.383,6.383-6.383l0,0c3.525,0,6.383,2.858,6.383,6.383v30.718
				C1106.564,694.109,1103.706,696.967,1100.181,696.967z"/>
			<path style="fill:#222D33;" d="M867.908,759.108L867.908,759.108c-3.053,1.763-6.957,0.717-8.719-2.336l-15.359-26.603
				c-1.763-3.053-0.717-6.957,2.336-8.719v0c3.053-1.763,6.957-0.717,8.719,2.336l15.359,26.603
				C872.007,753.441,870.961,757.345,867.908,759.108z"/>
			<path style="fill:#222D33;" d="M697.823,929.059L697.823,929.059c-1.763,3.053-5.666,4.099-8.719,2.336l-26.603-15.359
				c-3.053-1.763-4.099-5.666-2.336-8.719l0,0c1.763-3.053,5.666-4.099,8.719-2.336l26.603,15.359
				C698.54,922.103,699.586,926.006,697.823,929.059z"/>
			<path style="fill:#222D33;" d="M635.502,1161.284L635.502,1161.284c0,3.525-2.858,6.383-6.383,6.383h-30.718
				c-3.525,0-6.383-2.858-6.383-6.383l0,0c0-3.525,2.858-6.383,6.383-6.383h30.718
				C632.644,1154.901,635.502,1157.759,635.502,1161.284z"/>
			<path style="fill:#222D33;" d="M697.642,1393.557L697.642,1393.557c1.763,3.053,0.717,6.957-2.336,8.719l-26.603,15.359
				c-3.053,1.763-6.957,0.717-8.719-2.336l0,0c-1.763-3.053-0.717-6.957,2.336-8.719l26.603-15.359
				C691.976,1389.458,695.88,1390.504,697.642,1393.557z"/>
			<path style="fill:#222D33;" d="M867.594,1563.642L867.594,1563.642c3.053,1.763,4.099,5.666,2.336,8.719l-15.359,26.603
				c-1.763,3.053-5.666,4.099-8.719,2.336l0,0c-3.053-1.763-4.099-5.667-2.336-8.719l15.359-26.603
				C860.637,1562.925,864.541,1561.879,867.594,1563.642z"/>
			<path style="fill:#222D33;" d="M1099.819,1625.963L1099.819,1625.963c3.525,0,6.383,2.858,6.383,6.383v30.718
				c0,3.525-2.858,6.383-6.383,6.383l0,0c-3.525,0-6.383-2.858-6.383-6.383v-30.718
				C1093.436,1628.821,1096.294,1625.963,1099.819,1625.963z"/>
			<path style="fill:#222D33;" d="M1332.092,1563.823L1332.092,1563.823c3.053-1.763,6.957-0.717,8.719,2.336l15.359,26.603
				c1.763,3.053,0.717,6.957-2.336,8.719l0,0c-3.053,1.763-6.957,0.717-8.719-2.336l-15.359-26.603
				C1327.993,1569.489,1329.039,1565.585,1332.092,1563.823z"/>
			<path style="fill:#222D33;" d="M1502.177,1393.871L1502.177,1393.871c1.763-3.053,5.666-4.099,8.719-2.336l26.603,15.359
				c3.053,1.763,4.099,5.666,2.336,8.719l0,0c-1.763,3.053-5.667,4.099-8.719,2.336l-26.603-15.359
				C1501.46,1400.828,1500.414,1396.924,1502.177,1393.871z"/>
			<path style="fill:#222D33;" d="M1564.498,1161.646L1564.498,1161.646c0-3.525,2.858-6.383,6.383-6.383h30.718
				c3.525,0,6.383,2.858,6.383,6.383l0,0c0,3.525-2.858,6.383-6.383,6.383h-30.718
				C1567.356,1168.029,1564.498,1165.172,1564.498,1161.646z"/>
			<path style="fill:#222D33;" d="M1502.358,929.373L1502.358,929.373c-1.763-3.053-0.717-6.957,2.336-8.719l26.603-15.359
				c3.053-1.763,6.957-0.717,8.719,2.336l0,0c1.763,3.053,0.717,6.957-2.336,8.719l-26.603,15.359
				C1508.024,933.472,1504.12,932.426,1502.358,929.373z"/>
			<path style="fill:#222D33;" d="M1332.406,759.289L1332.406,759.289c-3.053-1.763-4.099-5.666-2.336-8.719l15.359-26.603
				c1.763-3.053,5.667-4.099,8.719-2.336h0c3.053,1.763,4.099,5.666,2.336,8.719l-15.359,26.603
				C1339.363,760.005,1335.459,761.051,1332.406,759.289z"/>
			<circle style="fill:#222D33;" cx="1100" cy="1161.465" r="52.463"/>
		</g>
	</g>
</g>
</svg>
